<svg width="61" height="61" viewBox="0 0 61 61" fill="none" xmlns="http://www.w3.org/2000/svg">
<path d="M60.1993 31.4988C60.1993 29.4534 60.0287 27.4156 59.6721 25.3989H30.8034V36.9504H47.3361C46.6526 40.6773 44.4467 43.9742 41.2238 46.0634V53.568H51.0939C56.8721 48.3563 60.1993 40.6334 60.1993 31.4988Z" fill="#4285F4"/>
<path d="M30.8036 60.8178C39.0628 60.8178 46.0219 58.161 51.0941 53.5753L41.224 46.0707C38.476 47.8978 34.9407 48.9387 30.8036 48.9387C22.8199 48.9387 16.0463 43.6619 13.6178 36.5575H3.45795V44.2874C8.65659 54.4271 19.2327 60.8178 30.8036 60.8178Z" fill="#34A853"/>
<path d="M13.6253 36.5573C12.3406 32.838 12.3406 28.7981 13.6253 25.0718V17.3489H3.45819C-0.886943 25.8284 -0.886943 35.8148 3.45819 44.2948L13.6253 36.5573Z" fill="#FBBC04"/>
<path d="M30.8036 12.6981C35.1709 12.6326 39.3819 14.2415 42.5457 17.1967L51.2873 8.63659C45.747 3.54179 38.4092 0.739341 30.8036 0.819483C19.2327 0.819483 8.6494 7.21723 3.45795 17.3494L13.625 25.0793C16.0463 17.9678 22.8199 12.6981 30.8036 12.6981Z" fill="#EA4335"/>
</svg>
